# 47 vertices, 16 polygons
v 6.311509 3.203384 12.279432
v -6.317497 3.203384 12.279434
v -6.317501 3.203384 -8.168255
v 6.311506 3.203384 -8.168257
v 4.372828 9.019306 12.278936
v 4.372825 9.019306 -8.168753
v -4.378819 9.019306 -8.168751
v -4.378816 9.019306 12.278938
v 6.311509 3.203384 12.279432
v 6.311506 3.203384 -8.168257
v 6.311506 7.652915 -8.168257
v 6.311509 7.652915 12.279432
v 3.206399 5.385757 -12.470329
v -3.212396 5.385757 -12.470327
v -3.212396 7.647274 -12.470327
v 3.206399 7.647274 -12.470329
v -6.317501 3.203384 -8.168255
v -6.317497 3.203384 12.279434
v -6.317497 7.652915 12.279434
v -6.317501 7.652915 -8.168255
v -6.317497 3.203384 12.279434
v 6.311509 3.203384 12.279432
v 6.311509 7.652915 12.279432
v -6.317497 7.652915 12.279434
v -3.212396 5.385757 -12.470327
v 3.206399 5.385757 -12.470329
v -3.212396 7.647274 -12.470327
v -3.212396 5.385757 -12.470327
v 2.221054 9.013684 -12.470823
v -2.227051 9.013684 -12.470823
v 6.311506 7.652915 -8.168257
v 3.206399 5.385757 -12.470329
v 3.206399 7.647274 -12.470329
v 6.311509 7.652915 12.279432
v 6.311506 7.652915 -8.168257
v 4.372825 9.019306 -8.168753
v 6.311506 7.652915 -8.168257
v 2.221054 9.013684 -12.470823
v 4.372825 9.019306 -8.168753
v -2.227051 9.013684 -12.470823
v 2.221054 9.013684 -12.470823
v -3.212396 7.647274 -12.470327
v -6.317501 7.652915 -8.168255
v -2.227051 9.013684 -12.470823
v -6.317497 7.652915 12.279434
v 4.372828 9.019306 12.278936
v -4.378816 9.019306 12.278938
vn 0.000000 -1.000000 0.000000
vn 0.000000 -1.000000 0.000000
vn -0.000000 -0.972577 -0.232579
vn -0.000000 -0.972577 -0.232579
vn 0.302173 0.953253 -0.000000
vn 0.302173 0.953253 -0.000000
vn -0.391955 0.909855 -0.136145
vn -0.302173 0.953253 0.000000
vn 1.000000 0.000000 -0.000000
vn 0.951539 0.000000 -0.307528
vn 0.951539 0.000000 -0.307528
vn 1.000000 0.000000 -0.000000
vn -0.000000 0.000000 -1.000000
vn -0.000000 0.000000 -1.000000
vn -0.000000 0.000000 -1.000000
vn -0.000000 0.000000 -1.000000
vn -0.951539 0.000000 -0.307528
vn -1.000000 0.000000 0.000000
vn -1.000000 0.000000 0.000000
vn -0.951539 0.000000 -0.307528
vn 0.000000 0.000000 1.000000
vn 0.000000 0.000000 1.000000
vn 0.000000 0.000000 1.000000
vn 0.000000 0.000000 1.000000
vn -0.000000 -0.891814 -0.452403
vn -0.000000 -0.891814 -0.452403
vn -0.810853 0.000000 -0.585249
vn -0.810853 0.000000 -0.585249
vn -0.000000 0.999999 -0.001307
vn -0.283860 0.936452 -0.206107
vn 0.901961 0.181229 -0.391948
vn 0.810853 0.000000 -0.585250
vn 0.782518 0.261309 -0.565140
vn 0.576095 0.817383 -0.000000
vn 0.669583 0.693694 -0.265419
vn 0.473053 0.860848 -0.187516
vn 0.772760 0.489501 -0.404019
vn 0.699805 0.504460 -0.505760
vn 0.669583 0.693694 -0.265419
vn -0.000000 -0.000363 -1.000000
vn -0.000000 -0.000363 -1.000000
vn -0.531796 0.754390 -0.384823
vn -0.564928 0.801468 -0.196226
vn -0.283860 0.936452 -0.206107
vn -0.576095 0.817383 0.000000
vn 0.000000 0.000363 1.000000
vn 0.000000 0.000363 1.000000
vt 0.439600 0.888500 0.0
vt 0.439600 0.814600 0.0
vt 0.512700 0.814600 0.0
vt 0.512700 0.888500 0.0
vt 0.600000 0.941900 0.0
vt 0.553300 0.885600 0.0
vt 0.592700 0.852900 0.0
vt 0.639400 0.909200 0.0
vt 0.520600 0.967200 0.0
vt 0.520600 0.894100 0.0
vt 0.543100 0.894100 0.0
vt 0.543100 0.967200 0.0
vt 0.531600 0.870300 0.0
vt 0.531600 0.832700 0.0
vt 0.543000 0.832700 0.0
vt 0.543000 0.870300 0.0
vt 0.520600 0.808900 0.0
vt 0.520600 0.735800 0.0
vt 0.543100 0.735800 0.0
vt 0.543100 0.808900 0.0
vt 0.666800 0.924500 0.0
vt 0.610000 0.971700 0.0
vt 0.595600 0.954400 0.0
vt 0.652500 0.907300 0.0
vt 0.531600 0.832700 0.0
vt 0.531600 0.870300 0.0
vt 0.543000 0.832700 0.0
vt 0.531600 0.832700 0.0
vt 0.553200 0.865700 0.0
vt 0.573200 0.849100 0.0
vt 0.543100 0.894100 0.0
vt 0.531600 0.870300 0.0
vt 0.543000 0.870300 0.0
vt 0.589800 0.950400 0.0
vt 0.543100 0.894100 0.0
vt 0.553300 0.885600 0.0
vt 0.543100 0.894100 0.0
vt 0.550900 0.865900 0.0
vt 0.553300 0.885600 0.0
vt 0.549900 0.838500 0.0
vt 0.549900 0.864500 0.0
vt 0.579400 0.840500 0.0
vt 0.602900 0.844500 0.0
vt 0.573600 0.847300 0.0
vt 0.649600 0.900700 0.0
vt 0.600000 0.941900 0.0
vt 0.639400 0.909200 0.0
f 1/1/1  2/2/2  3/3/3  4/4/4 
f 5/5/5  6/6/6  7/7/7  8/8/8 
f 9/9/9  10/10/10  11/11/11  12/12/12 
f 13/13/13  14/14/14  15/15/15  16/16/16 
f 17/17/17  18/18/18  19/19/19  20/20/20 
f 21/21/21  22/22/22  23/23/23  24/24/24 
f 4/4/4  3/3/3  25/25/25  26/26/26 
f 17/17/17  20/20/20  27/27/27  28/28/28 
f 7/7/7  6/6/6  29/29/29  30/30/30 
f 31/31/31  10/10/10  32/32/32  33/33/33 
f 34/34/34  35/35/35  36/36/36  5/5/5 
f 37/37/37  33/33/33  38/38/38  39/39/39 
f 16/16/16  15/15/15  40/40/40  41/41/41 
f 42/42/42  43/43/43  7/7/7  44/44/44 
f 43/43/43  45/45/45  8/8/8  7/7/7 
f 24/24/24  23/23/23  46/46/46  47/47/47 
